/* XPM */
static char *_5941d5366984f059ef1a161888afe3d0bySSeVLUkyEB5ZZ[] = {
/* columns rows colors chars-per-pixel */
"168 28 5 1 ",
"  c None",
". c black",
"X c #C4202B",
"o c #E6444F",
"O c white",
/* pixels */
"    ........    ........        ........    ........        ........    ........        ........    ........        ........    ........        ........    ........    ",
"    ........    ........        ........    ........        ........    ........        ........    ........        ........    ........        ........    ........    ",
"    ........    ........        ........    ........        ........    ........        ........    ........        ........    ........        ........    ........    ",
"    ........    ........        ........    ........        ........    ........        ........    ........        ........    ........        ........    ........    ",
"....OOOOXXXX....XXXXXXXX........OOOOoooo....XXXXXXXX........OOOOoooo....XXXXXXXX........OOOOXXXX....oooooooo........OOOOXXXX....oooooooo........OOOOXXXX....XXXXXXXX....",
"....OOOOXXXX....XXXXXXXX........OOOOoooo....XXXXXXXX........OOOOoooo....XXXXXXXX........OOOOXXXX....oooooooo........OOOOXXXX....oooooooo........OOOOXXXX....XXXXXXXX....",
"....OOOOXXXX....XXXXXXXX........OOOOoooo....XXXXXXXX........OOOOoooo....XXXXXXXX........OOOOXXXX....oooooooo........OOOOXXXX....oooooooo........OOOOXXXX....XXXXXXXX....",
"....OOOOXXXX....XXXXXXXX........OOOOoooo....XXXXXXXX........OOOOoooo....XXXXXXXX........OOOOXXXX....oooooooo........OOOOXXXX....oooooooo........OOOOXXXX....XXXXXXXX....",
"....XXXXXXXXXXXXXXXXXXXX........ooooXXXXXXXXXXXXXXXX........ooooooooooooXXXXXXXX........XXXXooooooooooooXXXX........XXXXXXXXoooooooooooo........XXXXXXXXXXXXXXXXoooo....",
"....XXXXXXXXXXXXXXXXXXXX........ooooXXXXXXXXXXXXXXXX........ooooooooooooXXXXXXXX........XXXXooooooooooooXXXX........XXXXXXXXoooooooooooo........XXXXXXXXXXXXXXXXoooo....",
"....XXXXXXXXXXXXXXXXXXXX........ooooXXXXXXXXXXXXXXXX........ooooooooooooXXXXXXXX........XXXXooooooooooooXXXX........XXXXXXXXoooooooooooo........XXXXXXXXXXXXXXXXoooo....",
"....XXXXXXXXXXXXXXXXXXXX........ooooXXXXXXXXXXXXXXXX........ooooooooooooXXXXXXXX........XXXXooooooooooooXXXX........XXXXXXXXoooooooooooo........XXXXXXXXXXXXXXXXoooo....",
"....XXXXXXXXXXXXXXXXXXXX........XXXXXXXXXXXXXXXXXXXX........ooooooooXXXXXXXXXXXX........ooooooooooooXXXXXXXX........XXXXoooooooooooooooo........XXXXXXXXXXXXoooooooo....",
"....XXXXXXXXXXXXXXXXXXXX........XXXXXXXXXXXXXXXXXXXX........ooooooooXXXXXXXXXXXX........ooooooooooooXXXXXXXX........XXXXoooooooooooooooo........XXXXXXXXXXXXoooooooo....",
"....XXXXXXXXXXXXXXXXXXXX........XXXXXXXXXXXXXXXXXXXX........ooooooooXXXXXXXXXXXX........ooooooooooooXXXXXXXX........XXXXoooooooooooooooo........XXXXXXXXXXXXoooooooo....",
"....XXXXXXXXXXXXXXXXXXXX........XXXXXXXXXXXXXXXXXXXX........ooooooooXXXXXXXXXXXX........ooooooooooooXXXXXXXX........XXXXoooooooooooooooo........XXXXXXXXXXXXoooooooo....",
"    ....XXXXXXXXXXXX....        ....XXXXXXXXXXXX....        ....XXXXXXXXXXXX....        ....ooooXXXXXXXX....        ....oooooooooooo....        ....XXXXoooooooo....    ",
"    ....XXXXXXXXXXXX....        ....XXXXXXXXXXXX....        ....XXXXXXXXXXXX....        ....ooooXXXXXXXX....        ....oooooooooooo....        ....XXXXoooooooo....    ",
"    ....XXXXXXXXXXXX....        ....XXXXXXXXXXXX....        ....XXXXXXXXXXXX....        ....ooooXXXXXXXX....        ....oooooooooooo....        ....XXXXoooooooo....    ",
"    ....XXXXXXXXXXXX....        ....XXXXXXXXXXXX....        ....XXXXXXXXXXXX....        ....ooooXXXXXXXX....        ....oooooooooooo....        ....XXXXoooooooo....    ",
"        ....XXXX....                ....XXXX....                ....XXXX....                ....XXXX....                ....oooo....                ....oooo....        ",
"        ....XXXX....                ....XXXX....                ....XXXX....                ....XXXX....                ....oooo....                ....oooo....        ",
"        ....XXXX....                ....XXXX....                ....XXXX....                ....XXXX....                ....oooo....                ....oooo....        ",
"        ....XXXX....                ....XXXX....                ....XXXX....                ....XXXX....                ....oooo....                ....oooo....        ",
"            ....                        ....                        ....                        ....                        ....                        ....            ",
"            ....                        ....                        ....                        ....                        ....                        ....            ",
"            ....                        ....                        ....                        ....                        ....                        ....            ",
"            ....                        ....                        ....                        ....                        ....                        ....            "
};
