/* XPM */
static char *result[] = {
/* columns rows colors chars-per-pixel */
"64 64 6 1 ",
"  c black",
". c #780808",
"X c #0A667F",
"o c #298CA7",
"O c #3699B4",
"+ c None",
/* pixels */
"++++++++++++++++++++++++++++++++    ++++++++++++++++++++++++++++",
"++++++++++++++++++++++++++++++++    ++++++++++++++++++++++++++++",
"++++++++++++++++++++++++++++++++    ++++++++++++++++++++++++++++",
"++++++++++++++++++++++++++++++++    ++++++++++++++++++++++++++++",
"++++++++++++++++++++++++++++    ....    ++++++++++++++++++++++++",
"++++++++++++++++++++++++++++    ....    ++++++++++++++++++++++++",
"++++++++++++++++++++++++++++    ....    ++++++++++++++++++++++++",
"++++++++++++++++++++++++++++    ....    ++++++++++++++++++++++++",
"++++++++++++++++++++++++    ............    ++++++++++++++++++++",
"++++++++++++++++++++++++    ............    ++++++++++++++++++++",
"++++++++++++++++++++++++    ............    ++++++++++++++++++++",
"++++++++++++++++++++++++    ............    ++++++++++++++++++++",
"++++++++++++++++++++    ....................    ++++++++++++++++",
"++++++++++++++++++++    ....................    ++++++++++++++++",
"++++++++++++++++++++    ....................    ++++++++++++++++",
"++++++++++++++++++++    ....................    ++++++++++++++++",
"++++++++++++++++    ............................    ++++++++++++",
"++++++++++++++++    ............................    ++++++++++++",
"++++++++++++++++    ............................    ++++++++++++",
"++++++++++++++++    ............................    ++++++++++++",
"++++++++++++++++    XXXXXXXXXXXXXXXXXXXXXXXXXXXX    ++++++++++++",
"++++++++++++++++    XXXXXXXXXXXXXXXXXXXXXXXXXXXX    ++++++++++++",
"++++++++++++++++    XXXXXXXXXXXXXXXXXXXXXXXXXXXX    ++++++++++++",
"++++++++++++++++    XXXXXXXXXXXXXXXXXXXXXXXXXXXX    ++++++++++++",
"++++++++++++++++    XXXXXXXXooooooooooooXXXXXXXX    ++++++++++++",
"++++++++++++++++    XXXXXXXXooooooooooooXXXXXXXX    ++++++++++++",
"++++++++++++++++    XXXXXXXXooooooooooooXXXXXXXX    ++++++++++++",
"++++++++++++++++    XXXXXXXXooooooooooooXXXXXXXX    ++++++++++++",
"++++++++++++++++    XXXXXXXXOOOOOOOOooooXXXXXXXX    ++++++++++++",
"++++++++++++++++    XXXXXXXXOOOOOOOOooooXXXXXXXX    ++++++++++++",
"++++++++++++++++    XXXXXXXXOOOOOOOOooooXXXXXXXX    ++++++++++++",
"++++++++++++++++    XXXXXXXXOOOOOOOOooooXXXXXXXX    ++++++++++++",
"++++++++++++++++    XXXXXXXXOOOOOOOOooooXXXXXXXX    ++++++++++++",
"++++++++++++++++    XXXXXXXXOOOOOOOOooooXXXXXXXX    ++++++++++++",
"++++++++++++++++    XXXXXXXXOOOOOOOOooooXXXXXXXX    ++++++++++++",
"++++++++++++++++    XXXXXXXXOOOOOOOOooooXXXXXXXX    ++++++++++++",
"++++++++++++++++    ....XXXXXXXXXXXXXXXXXXXX....    ++++++++++++",
"++++++++++++++++    ....XXXXXXXXXXXXXXXXXXXX....    ++++++++++++",
"++++++++++++++++    ....XXXXXXXXXXXXXXXXXXXX....    ++++++++++++",
"++++++++++++++++    ....XXXXXXXXXXXXXXXXXXXX....    ++++++++++++",
"++++++++++++    ........XXXXXXXX....XXXXXXXX........    ++++++++",
"++++++++++++    ........XXXXXXXX....XXXXXXXX........    ++++++++",
"++++++++++++    ........XXXXXXXX....XXXXXXXX........    ++++++++",
"++++++++++++    ........XXXXXXXX....XXXXXXXX........    ++++++++",
"++++++++++++    ........XXXXXXXX....XXXXXXXX........    ++++++++",
"++++++++++++    ........XXXXXXXX....XXXXXXXX........    ++++++++",
"++++++++++++    ........XXXXXXXX....XXXXXXXX........    ++++++++",
"++++++++++++    ........XXXXXXXX....XXXXXXXX........    ++++++++",
"++++++++    ............XXXXXXXX........XXXX............    ++++",
"++++++++    ............XXXXXXXX........XXXX............    ++++",
"++++++++    ............XXXXXXXX........XXXX............    ++++",
"++++++++    ............XXXXXXXX........XXXX............    ++++",
"++++++++    ........XXXXXXXXXXXX........XXXXXXXX........    ++++",
"++++++++    ........XXXXXXXXXXXX........XXXXXXXX........    ++++",
"++++++++    ........XXXXXXXXXXXX........XXXXXXXX........    ++++",
"++++++++    ........XXXXXXXXXXXX........XXXXXXXX........    ++++",
"++++++++    ........    ++++++++........++++    ........    ++++",
"++++++++    ........    ++++++++........++++    ........    ++++",
"++++++++    ........    ++++++++........++++    ........    ++++",
"++++++++    ........    ++++++++........++++    ........    ++++",
"++++++++            ++++++++++++++++....++++++++            ++++",
"++++++++            ++++++++++++++++....++++++++            ++++",
"++++++++            ++++++++++++++++....++++++++            ++++",
"++++++++            ++++++++++++++++....++++++++            ++++"
};
